<?xml version="1.0" encoding="UTF-8" standalone="no"?>
<svg
   width="100"
   height="100"
   viewBox="0 0 100 100"
   version="1.1"
   id="svg2"
   sodipodi:docname="app-logo.svg"
   inkscape:version="1.3.2 (1:1.3.2+202311252150+091e20ef0f)"
   xmlns:inkscape="http://www.inkscape.org/namespaces/inkscape"
   xmlns:sodipodi="http://sodipodi.sourceforge.net/DTD/sodipodi-0.dtd"
   xmlns="http://www.w3.org/2000/svg"
   xmlns:svg="http://www.w3.org/2000/svg">
  <sodipodi:namedview
     id="namedview2"
     pagecolor="#ffffff"
     bordercolor="#000000"
     borderopacity="0.25"
     inkscape:showpageshadow="2"
     inkscape:pageopacity="0.0"
     inkscape:pagecheckerboard="0"
     inkscape:deskcolor="#d1d1d1"
     showgrid="false"
     inkscape:zoom="5.6568543"
     inkscape:cx="48.878756"
     inkscape:cy="45.078057"
     inkscape:window-width="1850"
     inkscape:window-height="1016"
     inkscape:window-x="2630"
     inkscape:window-y="160"
     inkscape:window-maximized="1"
     inkscape:current-layer="svg2" />
  <defs
     id="defs1">
    <linearGradient
       id="swatch298"
       inkscape:swatch="solid">
      <stop
         style="stop-color:#000000;stop-opacity:1;"
         offset="0"
         id="stop299" />
    </linearGradient>
    <linearGradient
       id="swatch17"
       inkscape:swatch="solid">
      <stop
         style="stop-color:#191564;stop-opacity:1;"
         offset="0"
         id="stop18" />
    </linearGradient>
    <mask
       id="shape-mask">
      <polygon
         points="50,10 90,50 90,90 10,90 10,50"
         fill="white"
         id="polygon1" />
      <!-- Use white to mask the area outside -->
    </mask>
  </defs>
  <path
     id="polygon2"
     d="m 50.000942,9.9996921 -40,39.9999999 v 40 h 35 v -6.96875 C 39.191328,82.806553 33.562888,81.475821 30.270473,79.859067 l 2.599609,-8.630859 c 3.63946,1.699221 8.750928,3.248047 14.384766,3.248047 4.937496,0 8.318359,-1.626472 8.318359,-4.574219 0,-2.80199 -2.771685,-4.58265 -9.1875,-6.421875 -9.266536,-2.656233 -15.597656,-6.340427 -15.597656,-13.488281 0,-6.493865 5.375441,-11.573489 14.646485,-13.126953 v -7.001954 h 8.488281 v 6.486329 c 5.805107,0.220553 9.711177,1.252193 12.566406,2.433593 l -2.513672,8.337891 c -2.246774,-0.813172 -6.23457,-2.513672 -12.474609,-2.513672 -5.633838,0 -7.453125,2.063409 -7.453125,4.130859 0,2.431844 3.034185,3.977079 10.396484,6.341797 10.318938,3.093504 14.472656,7.149476 14.472656,13.791016 0,6.559072 -5.458695,12.163839 -15.423828,13.638672 v 7.490234 h 36.507813 v -40 z"
     transform="translate(0.46976127,-0.13250463)"
     style="mix-blend-mode:normal;fill:#611f71;fill-opacity:1;fill-rule:nonzero;stroke:#89128b;stroke-width:1.00157;stroke-dasharray:none;stroke-opacity:1" />
</svg>
